HIERARCHY
ROOT Hips
{
	OFFSET	0.00	0.00	0.00
	CHANNELS 6 Xposition Yposition Zposition Zrotation Xrotation Yrotation
	JOINT Spine
	{
		OFFSET	 0.00	0.01	 0.00
		CHANNELS 3 Zrotation Xrotation Yrotation
		JOINT Spine1
		{
			OFFSET	 0.00	 2.45913012437421	 0.00
			CHANNELS 3 Zrotation Xrotation Yrotation
            JOINT Neck
            {
                OFFSET	 0.00	 2.48462964506057	 0.00
                CHANNELS 3 Zrotation Xrotation Yrotation
                JOINT Head
                {
                    OFFSET	 0.00	 0.927524780924562	 0.00
                    CHANNELS 3 Zrotation Xrotation Yrotation
                    End Site 
                    {
                        OFFSET	 0.00	 1.14999962169752	 0.00
                    }
                }
            }
			JOINT LeftShoulder
			{
				OFFSET	 0.00	 2.48462964506057	 0.00
				CHANNELS 3 Zrotation Xrotation Yrotation
				JOINT LeftUpArm
				{
					OFFSET	 0.00	 1.24881979654096	 0.00
					CHANNELS 3 Zrotation Xrotation Yrotation
					JOINT LeftForeArm
					{
						OFFSET	 0.00	2.59758046908119	 0.00
						CHANNELS 3 Zrotation Xrotation Yrotation
						JOINT LeftHand
						{
							OFFSET	 0.00	2.45542024364365	 0.00
							CHANNELS 3 Zrotation Xrotation Yrotation
							JOINT LeftHandThumb 
							{
								OFFSET	 0.00	0.00	 0.00
								CHANNELS 3 Zrotation Xrotation Yrotation
								End Site
								{
									OFFSET	 0.00	0.00	1.00000003353624
								}
							}
							JOINT L_Wrist_End 
							{
								OFFSET	 0.00	0.99999967115358	 0.00
								CHANNELS 3 Zrotation Xrotation Yrotation
								End Site 
								{
									OFFSET	 0.00	 0.00	 0.00
								}
							}
						}
					}
				}
			}
			JOINT RightShoulder
			{
				OFFSET	 0.00	 2.48462964506057	 0.00
				CHANNELS 3 Zrotation Xrotation Yrotation
				JOINT RightUpArm
				{
					OFFSET	 0.00	 1.24881979654096	 0.00
					CHANNELS 3 Zrotation Xrotation Yrotation
					JOINT RightForeArm
					{
						OFFSET	 0.00	2.59758046908119	 0.00
						CHANNELS 3 Zrotation Xrotation Yrotation
						JOINT RightHand
						{
							OFFSET	 0.00	2.45542024364365	 0.00
							CHANNELS 3 Zrotation Xrotation Yrotation
							JOINT RightHandThumb 
							{
								OFFSET	 0.00	0.00	 0.00
								CHANNELS 3 Zrotation Xrotation Yrotation
								End Site
								{
									OFFSET	 0.00	0.00	1.00000003353624
								}
							}
							JOINT R_Wrist_End 
							{
								OFFSET	 0.00	0.99999967115358	 0.00
								CHANNELS 3 Zrotation Xrotation Yrotation
								End Site 
								{
									OFFSET	 0.00	 0.00	 0.00
								}
							}
						}
					}
				}
			}
		}
	}
	JOINT LeftUpLeg
	{
		OFFSET	 1.2719394002717	 0.00	 0.00
		CHANNELS 3 Zrotation Xrotation Yrotation
		JOINT LeftLowLeg
		{
			OFFSET	 0.00	-4.3429100912261	 0.00
			CHANNELS 3 Zrotation Xrotation Yrotation
			JOINT LeftFoot
			{
				OFFSET	 0.00	-4.48767017425826	 0.00
				CHANNELS 3 Zrotation Xrotation Yrotation
				JOINT LeftToeBase
                {
                    OFFSET	 0.00	0.00	 1.51507020887566
                    CHANNELS 3 Zrotation Xrotation Yrotation
                    End Site 
                    {
                        OFFSET	 0.00	0.00	 0.75000010571191
                    }
                }
			}
		}
	}
	JOINT RightUpLeg
	{
		OFFSET	 -1.2719393604653	 0.00	 0.00
		CHANNELS 3 Zrotation Xrotation Yrotation
		JOINT RightLowLeg
		{
			OFFSET	 0.00	-4.3429100912261	 0.00
			CHANNELS 3 Zrotation Xrotation Yrotation
			JOINT RightFoot
			{
				OFFSET	 0.00	-4.48767017425826	 0.00
				CHANNELS 3 Zrotation Xrotation Yrotation
				JOINT RightToeBase
                {
                    OFFSET	 0.00	0.00	 1.51507020887566
                    CHANNELS 3 Zrotation Xrotation Yrotation
                    End Site 
                    {
                        OFFSET	 0.00	0.00	 0.749999965609858
                    }
                }   
			}
		}
	}
}
MOTION 
Frames:	15 
Frame Time: 0.02 
  9.451069946289062 16.313499755859375 8.990070190429687 -142.72 68.4104 171.337 -12.4668 67.3979 21.0439 15.3734 3.41667 -1.52521 -19.5549 37.4378 697.993 130.703 -51.9319 823.606 -105.7263 19.9777 -21.332 -14.5407 42.3328 -4.757 0.0 42.24 0.0 37.6541 0.364755 -3.45621 0.0 0.0 0.0 0.0 0.0 0.0 109.7732 33.8654 -386.193 -21.2979 15.6417 50.0839 0.0 34.5938 0.0 -24.4296 -1.88817 -12.1355 0.0 0.0 0.0 0.0 0.0 0.0 9.93255 -50.2985 3.32043 0.0 42.5222 0.0 -21.1559 -3.7600994 3.97481 0.0 -31.989 0.0 0.44052 -46.932 -12.0088 0.0 43.116 0.0 10.4046 0.9926996 3.54958 0.0 -40.542297 0.0 
  9.438900146484375 16.289200439453126 9.009190063476563 -143.338 68.4477 172.266 -12.9994 65.7803 22.1551 17.4141 4.40406 -1.04655 -19.5643 37.4093 697.002 130.669 -52.9988 823.426 -108.4946 19.6159 -16.638 -13.1603 46.1106 -3.20305 0.0 45.6171 0.0 38.9999 1.66888 -2.83562 0.0 0.0 0.0 0.0 0.0 0.0 108.4305 33.4862 -385.637 -20.5574 15.8236 49.7488 0.0 34.4675 0.0 -24.112 -2.03995 -11.5946 0.0 0.0 0.0 0.0 0.0 0.0 9.69313 -49.8618 3.43213 0.0 41.7537 0.0 -21.2034 -3.1632996 3.67274 0.0 -31.3479 0.0 0.279665 -46.6561 -11.8623 0.0 42.8022 0.0 10.4437 1.0029001 3.29004 0.0 -40.4911 0.0 
  9.43093017578125 16.266700439453125 9.029940185546875 -143.895 68.6414 173.196 -12.0733 64.7661 21.4952 18.3094 4.82717 -0.767281 -20.5042 38.0383 697.425 131.279 -53.7535 823.03 -110.8456 18.8666 -11.3668 -11.1489 49.4548 -4.11683 0.0 48.0804 0.0 40.0462 1.64586 -1.68036 0.0 0.0 0.0 0.0 0.0 0.0 108.0755 33.4649 -385.361 -19.6219 16.5265 49.0972 0.0 34.2636 0.0 -24.3365 -1.98725 -11.5345 0.0 0.0 0.0 0.0 0.0 0.0 9.3575 -49.2715 3.50991 0.0 40.9649 0.0 -21.1513 -2.4806004 3.41492 0.0 -31.1374 0.0 0.00200662 -46.1743 -11.9012 0.0 42.4334 0.0 10.4502 1.0296001 3.04202 0.0 -40.3854 0.0 
  9.420349731445313 16.24260009765625 9.05052001953125 -144.352 68.7829 174.045 -10.7831 63.6124 20.3811 18.8577 5.39383 -0.646674 -21.054 38.774 697.528 131.661 -54.2445 822.7 -112.5612 17.9863 -7.62043 -11.1898 52.1357 -4.51698 0.0 49.8999 0.0 40.884 1.25356 -1.0528 0.0 0.0 0.0 0.0 0.0 0.0 108.1812 33.3425 -385.496 -19.1519 17.3927 48.9009 0.0 33.9965 0.0 -23.6953 -2.09226 -12.1123 0.0 0.0 0.0 0.0 0.0 0.0 9.17292 -48.6893 3.72916 0.0 40.126 0.0 -21.3151 -1.8041992 2.9312 0.0 -30.8529 0.0 -0.187544 -45.7226 -11.8946 0.0 42.0404 0.0 10.4704 1.0669003 2.76139 0.0 -40.3755 0.0 
  9.407030029296875 16.218299560546875 9.071229858398437 -144.75 69.1343 174.827 -9.86589 62.4381 19.5645 19.5602 6.29021 -0.742337 -21.3327 39.2703 697.451 131.693 -54.662 822.407 -112.5279 17.2155 -10.5048 -21.0033 52.0612 4.03452 0.0 51.9272 0.0 41.4362 1.32807 -0.569569 0.0 0.0 0.0 0.0 0.0 0.0 107.8862 33.2098 -385.386 -18.4843 18.4529 48.7256 0.0 33.9137 0.0 -22.9864 -2.0314 -12.2085 0.0 0.0 0.0 0.0 0.0 0.0 9.06319 -47.8966 3.98761 0.0 39.304 0.0 -21.6418 -1.029499 2.23407 0.0 -30.7927 0.0 -0.323409 -45.0319 -11.8514 0.0 41.5878 0.0 10.4742 1.1039 2.45234 0.0 -40.379898 0.0 
  9.397589721679687 16.198599853515624 9.092680053710938 -145.284 69.5242 175.699 -8.16363 61.6623 17.7733 19.1751 6.92387 -0.985584 -21.1409 39.8679 697.185 131.54 -54.5958 822.154 -112.6724 16.3442 -12.3486 -27.2443 50.789 10.1059 0.0 54.1681 0.0 41.5405 2.1487 -0.677544 0.0 0.0 0.0 0.0 0.0 0.0 107.8953 33.0606 -385.975 -17.7812 19.9308 49.0948 0.0 33.6818 0.0 -23.3872 -1.50178 -11.4917 0.0 0.0 0.0 0.0 0.0 0.0 8.92303 -47.1367 4.27054 0.0 38.61 0.0 -21.9135 -0.16230011 1.54239 0.0 -30.5301 0.0 -0.555007 -44.311 -11.8586 0.0 41.1314 0.0 10.507 1.1858997 2.27033 0.0 -40.2496 0.0 
  9.380330200195312 16.18219970703125 9.110800170898438 -145.59 69.9617 176.128 -7.14264 60.6692 16.8657 18.7536 8.00183 -1.08338 -19.5886 39.9314 695.743 130.432 -54.4259 821.644 -112.967804 16.0666 -12.4561 -29.336 49.8921 12.3794 0.0 56.9334 0.0 40.9254 2.33452 0.499261 0.0 0.0 0.0 0.0 0.0 0.0 107.3348 32.3797 -384.646 -16.4813 22.1702 48.449 0.0 33.5108 0.0 -23.4426 -1.45901 -9.52992 0.0 0.0 0.0 0.0 0.0 0.0 9.23838 -46.5302 5.05885 0.0 38.3293 0.0 -22.1632 0.8221998 0.676846 0.0 -30.521301 0.0 -0.293338 -43.6035 -11.1229 0.0 40.6156 0.0 10.7219 1.3141003 1.87773 0.0 -40.1209 0.0 
  9.367880249023438 16.17 9.126530151367188 -146.03 70.6688 176.693 -5.54561 60.2972 15.2075 17.5571 8.73876 -1.29527 -18.0642 40.1729 694.623 129.455 -53.9725 821.051 -114.2251 15.6847 -8.13853 -23.8467 50.7097 7.34087 0.0 59.4699 0.0 38.9607 3.12506 1.97727 0.0 0.0 0.0 0.0 0.0 0.0 107.4397 31.8257 -383.809 -15.3612 24.503 47.9883 0.0 33.307 0.0 -23.3054 -1.75151 -8.22398 0.0 0.0 0.0 0.0 0.0 0.0 9.25105 -45.9001 5.24409 0.0 38.4145 0.0 -22.4617 1.9646997 -0.00952665 0.0 -31.1536 0.0 -0.282644 -42.6823 -10.7675 0.0 40.2035 0.0 10.8282 1.4519997 1.65008 0.0 -40.1973 0.0 
  9.350889892578126 16.156099853515624 9.13780029296875 -146.419 71.1768 177.022 -5.101 59.5866 14.7748 17.0071 9.49333 -1.46554 -16.2001 40.4306 692.978 128.279 -53.4247 820.664 -115.5862 15.6235 -3.36642 -16.2205 51.3761 0.646751 0.0 60.633 0.0 38.3753 4.64523 3.54743 0.0 0.0 0.0 0.0 0.0 0.0 107.3723 31.0975 -383.14 -14.5314 26.5853 47.3396 0.0 32.9627 0.0 -23.3961 -1.68778 -7.74436 0.0 0.0 0.0 0.0 0.0 0.0 9.5662 -45.8008 5.44769 0.0 39.1745 0.0 -22.8176 3.1744003 -0.662619 0.0 -32.0738 0.0 -0.144115 -42.1117 -10.4797 0.0 40.0492 0.0 10.5811 1.6478004 1.39742 0.0 -40.1963 0.0 
  9.341010131835937 16.149599609375 9.146710205078126 -146.521 71.7746 177.095 -3.13853 59.14 12.3547 15.5338 9.978 -2.18506 -16.8959 42.4086 694.048 128.884 -52.5361 820.799 -115.8581 15.7383 -1.65518 -11.3883 48.9207 -2.91991 0.0 61.012 0.0 39.6345 5.40937 5.12942 0.0 0.0 0.0 0.0 0.0 0.0 108.1975 32.6641 -383.543 -13.2791 27.4393 46.1974 0.0 32.6049 0.0 -22.9532 -1.79823 -8.78865 0.0 0.0 0.0 0.0 0.0 0.0 9.77166 -46.0015 5.16425 0.0 40.5211 0.0 -23.3112 4.3978004 -1.09207 0.0 -32.975403 0.0 -0.0655287 -41.4399 -10.3841 0.0 39.8817 0.0 10.4191 1.8540001 1.29474 0.0 -40.215797 0.0 
  9.330120239257813 16.138699951171876 9.152100219726563 -146.083 72.2125 176.505 -1.83631 59.2072 10.6364 14.0299 9.54653 -2.68584 -18.3314 44.2748 696.221 129.756 -51.5344 820.825 -115.6472 15.4498 -1.57149 -9.00704 46.6043 -3.811 0.0 60.1299 0.0 41.6464 5.47469 5.23631 0.0 0.0 0.0 0.0 0.0 0.0 109.764 33.7307 -384.939 -12.9623 28.1341 45.0591 0.0 32.3889 0.0 -23.0277 -2.15641 -7.07886 0.0 0.0 0.0 0.0 0.0 0.0 10.3959 -46.5166 5.09003 0.0 42.2167 0.0 -24.4004 5.4663296 -2.08647 0.0 -33.6614 0.0 0.320252 -40.8165 -10.1326 0.0 39.5543 0.0 10.3866 2.0570002 1.32895 0.0 -40.582397 0.0 
  9.325339965820312 16.133199462890627 9.151019897460937 -145.717 72.4784 175.899 -0.590745 59.1523 9.14646 12.4845 9.05623 -2.94265 -18.8654 46.2723 697.331 130.171 -50.363 820.779 -114.7245 15.6325 -2.83594 -8.67273 44.3088 -3.2784 0.0 58.1612 0.0 42.6422 5.28414 5.07062 0.0 0.0 0.0 0.0 0.0 0.0 111.1511 34.3282 -386.18 -12.1991 29.3507 46.0578 0.0 31.9708 0.0 -22.5802 -1.54784 -8.356 0.0 0.0 0.0 0.0 0.0 0.0 10.9372 -47.1938 4.63016 0.0 43.834 0.0 -26.853 6.1776 -3.40672 0.0 -34.0139 0.0 0.569498 -40.5359 -10.0522 0.0 39.5257 0.0 10.3173 2.2080002 1.54082 0.0 -40.2753 0.0 
  9.323660278320313 16.128299560546875 9.146740112304688 -145.159 73.1412 175.022 -0.982748 59.1388 9.51016 12.6018 9.29945 -3.03593 -19.4567 47.2775 698.214 130.338 -50.0799 820.505 -113.9208 16.3629 -4.67699 -8.95272 42.7251 -2.93684 0.0 55.3826 0.0 43.1982 4.45968 5.67976 0.0 0.0 0.0 0.0 0.0 0.0 111.3495 34.3624 -386.277 -12.0442 29.9102 44.3805 0.0 31.9747 0.0 -23.1162 -2.37554 -8.44079 0.0 0.0 0.0 0.0 0.0 0.0 11.4275 -47.1378 3.91798 0.0 44.7728 0.0 -29.1136 6.15998 -4.74067 0.0 -35.388 0.0 0.813774 -39.9061 -10.0234 0.0 39.5947 0.0 10.2643 2.3723001 1.86767 0.0 -40.3084 0.0 
  9.32177001953125 16.13 9.135910034179688 -144.247 73.6466 173.72 -1.35692 59.2263 9.95002 12.3263 9.56606 -3.00386 -18.8118 47.4416 698.109 129.599 -49.6565 820.014 -112.467804 16.5324 -7.24778 -10.1482 42.2351 -2.19987 0.0 51.8536 0.0 44.2268 3.24175 4.39163 0.0 0.0 0.0 0.0 0.0 0.0 111.2329 33.9152 -385.558 -11.6335 31.1114 42.8552 0.0 31.9612 0.0 -23.5263 -2.94334 -6.33376 0.0 0.0 0.0 0.0 0.0 0.0 12.0604 -46.9902 3.10628 0.0 44.9226 0.0 -29.716 5.1166697 -6.10103 0.0 -35.3041 0.0 1.20993 -39.5043 -9.8721 0.0 39.7464 0.0 10.1968 2.462 2.12391 0.0 -40.376 0.0 
  9.32802978515625 16.136500244140624 9.125139770507813 -143.745 74.0761 172.806 -2.13053 59.3534 10.8645 12.2761 9.9532 -2.89395 -16.8319 47.0455 696.515 128.568 -49.0273 819.702 -110.4023 16.7525 -11.9326 -13.977 41.9323 0.628119 0.0 47.8676 0.0 45.3944 2.44395 4.64226 0.0 0.0 0.0 0.0 0.0 0.0 110.7263 32.9691 -384.658 -11.1954 32.7118 42.9144 0.0 32.0216 0.0 -22.9896 -3.38179 -6.37198 0.0 0.0 0.0 0.0 0.0 0.0 12.402 -46.5663 2.05019 0.0 44.0569 0.0 -28.0364 3.0893002 -6.85501 0.0 -35.0797 0.0 1.45535 -39.2533 -9.60106 0.0 40.0029 0.0 10.2492 2.4959002 2.32993 0.0 -40.584 0.0 
